<svg style="fill: #c4c4c4" xmlns="http://www.w3.org/2000/svg" fill-rule="evenodd" clip-rule="evenodd" viewBox="0 0 24 24"><path d="M24 24v-7c0-.265-.105-.52-.293-.707-.187-.188-.442-.293-.707-.293h-22c-.265 0-.52.105-.707.293-.188.187-.293.442-.293.707v7h1v-2h22v2h1zm-1-6.5c0-.133-.053-.26-.146-.354-.094-.093-.221-.146-.354-.146h-21c-.133 0-.26.053-.354.146-.093.094-.146.221-.146.354v3.5h22v-3.5zm-20-2.5v-3.5c0-.276.224-.5.5-.5h17c.276 0 .5.224.5.5v3.5h1v-4c0-.265-.105-.52-.293-.707-.187-.188-.442-.293-.707-.293h-18c-.265 0-.52.105-.707.293-.188.187-.293.442-.293.707v4h1zm2 0h6v-2c0-.552-.448-1-1-1h-4c-.552 0-1 .448-1 1v2zm8 0h6v-2c0-.552-.448-1-1-1h-4c-.552 0-1 .448-1 1v2zm-3-1v-.6c0-.221-.179-.4-.4-.4h-3.2c-.221 0-.4.179-.4.4v.6h4zm8 0v-.6c0-.221-.179-.4-.4-.4h-3.2c-.221 0-.4.179-.4.4v.6h4zm-1-8c.552 0 1 .448 1 1s-.448 1-1 1-1-.448-1-1 .448-1 1-1zm4 0c.552 0 1 .448 1 1s-.448 1-1 1-1-.448-1-1 .448-1 1-1zm-14 0c.552 0 1 .448 1 1s-.448 1-1 1-1-.448-1-1 .448-1 1-1zm-4 0c.552 0 1 .448 1 1s-.448 1-1 1-1-.448-1-1 .448-1 1-1zm7.037-6c-1.172 0-2.401.821-2.401 2.547 0 1.478 1.113 3.447 4.364 5.453 3.25-2.006 4.363-3.975 4.363-5.453 0-1.72-1.235-2.547-2.409-2.547-.84 0-1.597.4-1.954 1.048-.383-.656-1.118-1.048-1.963-1.048zm0 1c1.096 0 1.963 1.915 1.963 1.915s.814-1.915 1.954-1.915c.65 0 1.409.405 1.409 1.547 0 .628-.341 2.254-3.363 4.265-3.024-2.011-3.364-3.638-3.364-4.265 0-1.142.755-1.547 1.401-1.547zm8.963 2.085c.552 0 1 .448 1 1s-.448 1-1 1-1-.448-1-1 .448-1 1-1zm-14-.085c.552 0 1 .448 1 1s-.448 1-1 1-1-.448-1-1 .448-1 1-1z"/></svg>